<?xml version="1.0" encoding="utf-8"?>
<!-- Generator: Adobe Illustrator 19.0.0, SVG Export Plug-In . SVG Version: 6.00 Build 0)  -->
<svg version="1.1" id="Capa_1" xmlns="http://www.w3.org/2000/svg" xmlns:xlink="http://www.w3.org/1999/xlink" x="0px" y="0px"
	 viewBox="-219 228.1 402.8 139.2" style="enable-background:new -219 228.1 402.8 139.2;" xml:space="preserve">
<style type="text/css">
	.st0{fill:#212121;}
</style>
<g>
	<g>
		<path class="st0" d="M-123.8,304.4L-124,282c0-1,0-2.1,0-3.1c0-3.3-0.1-5.9-0.1-9.1c-0.1-5.9-4.6-10.1-10.9-10.1h-0.1
			c-2.2,0-4.1,0.2-5.7,0.9l-0.1-6.7c0-3.2-1.1-6-3.1-8c-2.2-2.2-5.1-3.4-8.1-3.4c-1.6,0-3.2,0.3-4.5,0.9c-0.4,0.2-0.7,0.3-1,0.5
			c-0.3-6.1-4.9-10.5-11.1-10.5c-0.2,0-0.5,0-0.7,0c-6,0.4-10.1,4.7-10.4,10.7c-1.6-0.9-3.4-1.4-5.3-1.4c-1.7,0-3.3,0.4-5,1.1
			c-4,1.8-6.3,5.6-6.3,10.1l0.4,38.8c-2.5-2-5.6-3.2-9.5-3.7l-6.6-0.9l-0.4,6.7v0.2c0,0.2,0,0.5,0,0.9c0,2,0,4,0.1,6v0.4
			c0.1,4.7,0.1,9.6,0.1,14.4c0,5.7,0.2,10.6,1.3,15.6c2.3,10.2,7.5,18.3,15.5,23.8c6.8,4.8,15,7.3,24.2,7.4c1.6,0,3.2,0,4.8,0
			c3.9,0,7.9-0.1,12.3-0.2c8.1-0.2,15.1-2.8,20.7-7.7c6.7-5.7,10-13.3,9.9-22.4C-123.6,323.7-123.7,314.1-123.8,304.4z
			 M-205.2,302.1c0-1.9,0-3.8-0.1-5.7c2.8,0.5,4.7,1.6,6.1,3.4c1,1.2,1.5,2.7,1.5,4.5c0.1,2.3,0.1,4.7,0.1,7v2.5c0,1.3,0,2.6,0,3.9
			c0,1.9,0,3.8,0.1,5.6l-0.3,0.1l0.2,1c0,0.1,0,0.2,0.1,0.2c0,0.5,0.2,0.9,0.4,1.4c3.6,12.3,15.8,21.1,29.7,21.1
			c9.7,0,19-4.3,24.8-11.6l0.7-0.8l-6.8-5.5l-0.7,0.8c-4.1,5.2-10.8,8.3-17.9,8.3c-9.8,0-18.4-5.9-21.1-14.2c0-1.3,0-2.6,0-3.9
			c0-0.5,0-1,0-1.4c-0.2-16-0.3-31.9-0.5-47.9l-0.1-17c0-1.7,0.6-2.8,2-3.4c0.7-0.3,1.3-0.5,2-0.5c0.9,0,1.8,0.4,2.5,1.1
			s1.1,1.6,1.1,2.8c0.1,7,0.1,14,0.2,21l0.1,7.9c0,2.7,0.1,5.4,0.1,8v4.9c0,2.9,1.9,5,4.5,5h0.1c2.7-0.1,4.5-2.1,4.4-5.1l-0.1-13.9
			c-0.1-12.3-0.2-24.6-0.4-36.9c0-2.5,1.3-4,3.5-4.1c0.1,0,0.2,0,0.3,0c2.3,0,3.8,1.5,3.8,3.8c0.1,3.9,0.1,7.9,0.1,11.8
			c0,1.9,0,3.8,0.1,5.7l0.3,26.3v2.5c0,1.7,0,3.5,0.1,5.2c0,2.8,1.9,4.8,4.5,4.8c0.1,0,0.2,0,0.3,0c2.6-0.2,4.4-2.4,4.2-5.4
			c-0.1-1.9-0.1-3.8-0.1-5.6c0-0.9,0-1.8,0-2.7v-3.7c-0.1-9.8-0.2-19.7-0.3-29.5c0-1.8,0.7-2.9,2.2-3.6c0.5-0.2,1-0.3,1.5-0.3
			c1.1,0,2.2,0.5,2.9,1.2c0.6,0.6,0.9,1.5,0.9,2.7v3.5c0,4.7,0.1,9.4,0.1,14.1c0,1.9,0.1,3.8,0.1,5.8c0,2.1,0.1,4.2,0.1,6.2
			c0,2.3,0,4.7,0,7c0,1,0,2,0,3c0,0.3,0,0.6,0,0.9c0,0.6,0,1.3,0,2c0.1,2.4,2.1,4.3,4.5,4.3c2.5,0,4.4-2,4.4-4.4c0-2,0-4-0.1-6
			c0-1.6-0.1-3.3-0.1-4.9v-1.1c0-4.9-0.1-9.9,0-14.9c0-2,1.6-3.4,3.8-3.4c2.2,0,3.6,1.4,3.7,3.6c0.1,3.1,0.1,6.3,0.1,9.4
			c0,1.1,0,2.2,0,3.4l0.2,19.6c0.1,10.6,0.2,21.2,0.3,31.8c0.1,6.9-2.4,12.6-7.4,16.8c-4.4,3.7-9.8,5.7-16.2,5.9
			c-4.3,0.1-8.3,0.2-12.1,0.2c-1.6,0-3.1,0-4.7,0c-7.9-0.1-14.5-2.1-20.1-6.1c-6.5-4.6-10.7-10.9-12.6-19.5c-1-4.3-1.2-8.7-1.1-13.9
			C-205,311.9-205.1,306.9-205.2,302.1z"/>
		<path class="st0" d="M-149.2,311.5c-2.9,0-5.3,2.4-5.3,5.3c0,2.9,2.4,5.3,5.3,5.3s5.3-2.4,5.3-5.3
			C-143.8,313.9-146.2,311.5-149.2,311.5z"/>
	</g>
</g>
<g>
	<path class="st0" d="M-86,326.2c-4.9,0-9.1-0.8-12.4-2.4c-3.4-1.6-6.4-3.8-9-6.8l8.4-8.5c1.8,2,3.8,3.6,6,4.8
		c2.2,1.2,4.7,1.7,7.5,1.7c2.8,0,4.8-0.4,5.9-1.3c1.1-0.9,1.7-2.1,1.7-3.5c0-2.4-1.7-3.8-5.1-4.3l-5.5-0.7
		c-11.5-1.4-17.2-6.7-17.2-15.7c0-2.5,0.5-4.7,1.4-6.8c0.9-2,2.3-3.8,4-5.2c1.7-1.5,3.8-2.6,6.2-3.4c2.4-0.8,5.2-1.2,8.2-1.2
		c2.7,0,5,0.2,7,0.5c2,0.4,3.9,0.9,5.4,1.6c1.6,0.7,3,1.5,4.4,2.5c1.3,1,2.6,2.1,3.9,3.4l-8.3,8.5c-1.6-1.6-3.4-2.9-5.5-3.8
		c-2-0.9-4.1-1.4-6.3-1.4c-2.5,0-4.2,0.4-5.2,1.2c-1,0.8-1.6,1.8-1.6,3.1c0,1.4,0.4,2.4,1.1,3.2c0.7,0.7,2.2,1.3,4.2,1.6l5.7,0.8
		c11.2,1.5,16.8,6.6,16.8,15.3c0,2.5-0.5,4.7-1.6,6.8c-1,2.1-2.5,3.9-4.4,5.4c-1.9,1.5-4.2,2.7-6.9,3.5
		C-79.7,325.8-82.7,326.2-86,326.2z"/>
	<path class="st0" d="M-16.7,325.1c-2.6,0-4.7-0.8-6.5-2.4c-1.7-1.6-2.8-3.8-3.3-6.5H-27c-0.8,3.3-2.5,5.8-5.1,7.5
		c-2.7,1.7-5.9,2.6-9.8,2.6c-5.1,0-9-1.4-11.8-4.1c-2.7-2.7-4.1-6.3-4.1-10.7c0-5.4,2-9.3,5.9-12c3.9-2.6,9.2-3.9,16-3.9h8.1v-3.2
		c0-2.5-0.6-4.4-1.9-5.9c-1.3-1.5-3.5-2.2-6.5-2.2c-2.8,0-5.1,0.6-6.8,1.8c-1.7,1.2-3.1,2.6-4.2,4.2l-8.5-7.6
		c2.1-3.1,4.7-5.5,7.8-7.2c3.1-1.7,7.4-2.6,12.8-2.6c7.3,0,12.7,1.6,16.3,4.8c3.6,3.2,5.4,7.8,5.4,13.9v22.3h4.8v11.2H-16.7z
		 M-36.6,316.2c2.4,0,4.5-0.5,6.2-1.5c1.7-1,2.6-2.7,2.6-5v-6h-7c-5.6,0-8.4,1.9-8.4,5.7v1.4c0,1.9,0.6,3.2,1.7,4.1
		S-38.7,316.2-36.6,316.2z"/>
	<path class="st0" d="M31.2,274.1h13.4L25,332.9c-1.3,3.9-3.1,6.9-5.5,8.7c-2.4,1.9-5.7,2.8-10.1,2.8H0.4v-11.2H10l1.7-5.6
		l-17.9-53.6H8.2l7.5,23.8l3.7,14.8H20l3.8-14.8L31.2,274.1z"/>
	<path class="st0" d="M51.9,325.1v-51h14.4v11.1h0.5c0.3-1.4,0.7-2.8,1.4-4.1c0.6-1.3,1.5-2.5,2.6-3.5c1.1-1,2.3-1.9,3.8-2.5
		c1.5-0.6,3.2-0.9,5.2-0.9h2.5v13.4h-3.6c-4.2,0-7.3,0.6-9.4,1.7c-2,1.1-3.1,3.1-3.1,6.1v29.8H51.9z"/>
	<path class="st0" d="M98.3,268.7c-2.9,0-5-0.7-6.4-2c-1.3-1.3-2-3-2-5.1v-2.1c0-2.1,0.7-3.8,2-5.1c1.3-1.3,3.4-2,6.4-2s5,0.7,6.4,2
		c1.3,1.3,2,3,2,5.1v2.1c0,2.1-0.7,3.8-2,5.1C103.4,268,101.2,268.7,98.3,268.7z M91.1,274.1h14.4v51H91.1V274.1z"/>
	<path class="st0" d="M118.9,325.1v-51h14.4v8.6h0.6c0.9-2.7,2.5-5,4.8-6.9c2.3-1.9,5.4-2.9,9.4-2.9c5.2,0,9.2,1.7,11.9,5.2
		c2.7,3.5,4,8.5,4,15v32h-14.4v-30.8c0-3.3-0.5-5.7-1.6-7.3c-1-1.6-2.9-2.4-5.5-2.4c-1.2,0-2.3,0.1-3.4,0.4c-1.1,0.3-2.1,0.8-3,1.4
		c-0.9,0.6-1.6,1.4-2.1,2.4c-0.5,0.9-0.8,2-0.8,3.3v33H118.9z"/>
</g>
</svg>
